<svg version="1.2" xmlns="http://www.w3.org/2000/svg" viewBox="0 0 114 113" width="114" height="113"><defs><clipPath clipPathUnits="userSpaceOnUse" id="cp1"><path d="m70 1.68h17v12.32h-17z"/></clipPath><clipPath clipPathUnits="userSpaceOnUse" id="cp2"><path d="m0.43 39h28.57v19h-28.57z"/></clipPath><clipPath clipPathUnits="userSpaceOnUse" id="cp3"><path d="m24 92h44v20.68h-44z"/></clipPath><clipPath clipPathUnits="userSpaceOnUse" id="cp4"><path d="m67 76h45.93v22h-45.93z"/></clipPath></defs><style>.a{fill:#546b74}.b{fill:#5d6f76}.c{fill:#080707}</style><path class="a" d="m40.6 39.1l10.7-5.9-16.5-6.3-10.7 6z"/><path class="a" d="m57.9 14.1l-10.9 6 16.6 6.2 10.8-6z"/><g clip-path="url(#cp1)"><path class="a" d="m86.5 13.4l-6.6-11.7-9.8 5.5z"/></g><g clip-path="url(#cp2)"><path class="a" d="m11.8 39.7l-11.3 6.3 6.6 11.9 21.2-11.9z"/></g><path fill-rule="evenodd" class="a" d="m109.1 73.1l-85.7 30.5-16.3-45.8 23.2-8.2-4.4 12 13.2-4.8 4.5-11.9 11.7-4.2-4.6 12 13.2-4.7 4.6-12 11.7-4.2-4.6 12 13.2-4.7 4.2-11.4zm-15.4-19.2l-0.9-2.4-70.3 25 1 2.5zm-64.8 38.8l70.2-25.1-0.9-2.4-70.3 25.1z"/><g clip-path="url(#cp3)"><path class="a" d="m24.8 107l40.4-14.4 2 5.7-40.4 14.4z"/></g><g clip-path="url(#cp4)"><path class="a" d="m67.6 91.7l42.9-15.3 2 5.7-42.9 15.3z"/></g><path fill-rule="evenodd" class="b" d="m-26.9 178.7h-1.1l3.1-8.4h1.1l3.1 8.4h-1.1l-0.8-2.4h-3.5zm1.2-3.3h2.8l-1.4-3.8z"/><path class="b" d="m-4.6 172.9h-1.1q-0.1-0.6-0.5-1-0.3-0.4-0.8-0.6-0.5-0.2-1-0.2-0.8 0-1.5 0.4-0.6 0.4-0.9 1.2-0.4 0.7-0.4 1.8 0 1.1 0.4 1.9 0.3 0.7 0.9 1.1 0.7 0.4 1.5 0.4 0.5 0 1-0.2 0.5-0.2 0.8-0.6 0.4-0.4 0.5-1h1.1q-0.2 0.9-0.7 1.5-0.5 0.6-1.2 0.9-0.7 0.3-1.5 0.3-1.1 0-2-0.5-0.8-0.5-1.3-1.5-0.5-1-0.5-2.3 0-1.3 0.5-2.3 0.5-1 1.3-1.5 0.9-0.5 2-0.5 0.8 0 1.5 0.3 0.7 0.3 1.2 0.9 0.5 0.6 0.7 1.5z"/><path fill-rule="evenodd" class="b" d="m6.5 174.5q0 1.3-0.5 2.3-0.5 1-1.3 1.5-0.9 0.5-2 0.5-1 0-1.9-0.5-0.8-0.5-1.3-1.5-0.5-1-0.5-2.3 0-1.3 0.5-2.3 0.5-1 1.3-1.5 0.9-0.5 1.9-0.5 1.1 0 2 0.5 0.8 0.5 1.3 1.5 0.5 1 0.5 2.3zm-1 0q0-1.1-0.4-1.8-0.4-0.8-1-1.2-0.6-0.4-1.4-0.4-0.7 0-1.4 0.4-0.6 0.4-0.9 1.2-0.4 0.7-0.4 1.8 0 1.1 0.4 1.9 0.3 0.7 0.9 1.1 0.7 0.4 1.4 0.4 0.8 0 1.4-0.4 0.6-0.4 1-1.1 0.4-0.8 0.4-1.9z"/><path fill-rule="evenodd" class="b" d="m13.1 178.7h-2.6v-8.4h2.7q1.3 0 2.2 0.5 0.8 0.5 1.3 1.4 0.5 1 0.5 2.3 0 1.3-0.5 2.3-0.5 0.9-1.4 1.4-0.9 0.5-2.2 0.5zm-1.6-0.9h1.6q1.5 0 2.3-0.9 0.8-0.9 0.8-2.4 0-1.5-0.8-2.4-0.7-0.9-2.2-0.9h-1.7z"/><path class="b" d="m22.2 170.3v8.4h-1v-8.4z"/><path class="b" d="m33.3 170.3v8.4h-1l-4.6-6.6h-0.1v6.6h-1v-8.4h1l4.6 6.6h0.1v-6.6z"/><path class="b" d="m43.5 172.9q-0.3-0.8-0.9-1.3-0.6-0.5-1.5-0.5-0.8 0-1.4 0.4-0.6 0.4-1 1.2-0.3 0.7-0.3 1.8 0 1.1 0.3 1.9 0.4 0.7 1 1.1 0.7 0.4 1.5 0.4 0.7 0 1.2-0.3 0.6-0.3 0.9-0.9 0.3-0.5 0.3-1.3h-2.2v-0.9h3.2v0.9q0 1.1-0.4 1.8-0.5 0.8-1.3 1.2-0.7 0.4-1.7 0.4-1.2 0-2-0.5-0.9-0.5-1.4-1.5-0.4-1-0.4-2.3 0-1.3 0.4-2.3 0.5-1 1.4-1.5 0.8-0.5 1.9-0.5 0.9 0 1.6 0.3 0.7 0.3 1.2 1 0.5 0.6 0.7 1.4z"/><path class="b" d="m61.1 172.9h-1q-0.2-0.6-0.5-1-0.4-0.4-0.9-0.6-0.4-0.2-1-0.2-0.8 0-1.4 0.4-0.6 0.4-1 1.2-0.4 0.7-0.3 1.8-0.1 1.1 0.3 1.9 0.4 0.7 1 1.1 0.6 0.4 1.4 0.4 0.6 0 1-0.2 0.5-0.2 0.9-0.6 0.3-0.4 0.5-1h1q-0.2 0.9-0.6 1.5-0.5 0.6-1.2 0.9-0.8 0.3-1.6 0.3-1.1 0-1.9-0.5-0.9-0.5-1.4-1.5-0.4-1-0.4-2.3 0-1.3 0.4-2.3 0.5-1 1.4-1.5 0.8-0.5 1.9-0.5 0.8 0 1.6 0.3 0.7 0.3 1.2 0.9 0.4 0.6 0.6 1.5z"/><path class="b" d="m65.1 178.7v-8.4h1v3.7h4.5v-3.7h1.1v8.4h-1.1v-3.7h-4.5v3.7z"/><path fill-rule="evenodd" class="b" d="m76.4 178.7h-1.1l3.1-8.4h1.1l3.1 8.4h-1.1l-0.9-2.4h-3.4zm1.2-3.3h2.8l-1.4-3.8h-0.1z"/><path class="b" d="m86.2 178.7v-8.4h1v7.5h4v0.9z"/><path class="b" d="m95.1 178.7v-8.4h1v7.5h4v0.9z"/><path class="b" d="m104 178.7v-8.4h5.1v0.9h-4.1v2.8h3.8v1h-3.8v2.8h4.2v0.9z"/><path class="b" d="m120 170.3v8.4h-1l-4.6-6.6h-0.1v6.6h-1v-8.4h1l4.6 6.6h0.1v-6.6z"/><path class="b" d="m130.1 172.9q-0.2-0.8-0.8-1.3-0.7-0.5-1.6-0.5-0.7 0-1.3 0.4-0.6 0.4-1 1.2-0.4 0.7-0.4 1.8 0 1.1 0.4 1.9 0.3 0.7 1 1.1 0.6 0.4 1.4 0.4 0.7 0 1.2-0.3 0.6-0.3 0.9-0.9 0.3-0.5 0.4-1.3h-2.3v-0.9h3.3v0.9q-0.1 1.1-0.5 1.8-0.4 0.8-1.2 1.2-0.8 0.4-1.8 0.4-1.1 0-2-0.5-0.8-0.5-1.3-1.5-0.5-1-0.5-2.3 0-1.3 0.5-2.3 0.5-1 1.3-1.5 0.8-0.5 1.9-0.5 0.9 0 1.6 0.3 0.8 0.3 1.3 1 0.4 0.6 0.6 1.4z"/><path class="b" d="m135.3 178.7v-8.4h5.1v0.9h-4v2.8h3.8v1h-3.8v2.8h4.1v0.9z"/><path class="c" d="m0.2 153.4h-3l-4.7-22.3v22.3h-2.7v-28h4.4l4.5 22.4 4.5-22.4h4.3v28h-2.9v-22.5z"/><path fill-rule="evenodd" class="c" d="m11.3 132.2q0-3.3 1.6-5.2 1.6-1.9 4.8-1.9 3.3 0 4.8 1.9 1.7 1.9 1.7 5.2v14.4q0 3.2-1.7 5.2-1.5 1.9-4.8 1.9-3.2 0-4.8-1.9-1.6-2-1.6-5.2zm3.1 14.7q0 1.9 0.8 2.9 0.8 1.1 2.5 1.1 1.7 0 2.5-1.1 0.8-1 0.8-2.9v-14.8q0-1.9-0.8-3-0.8-1.1-2.5-1.1-1.7 0-2.5 1.1-0.8 1.1-0.8 3z"/><path class="c" d="m30.3 125.4l4.5 24.4 4.6-24.4h2.8l-5.2 28h-4.6l-5.3-28z"/><path class="c" d="m48.5 125.4v28h-3.1v-28z"/><path class="c" d="m62.5 137.8v2.8h-6.8v10h8.4v2.8h-11.6v-28h11.6v2.8h-8.4v9.6z"/><path class="c" d="m74.7 153.4v-28h3.2v25.2h8v2.8z"/><path class="c" d="m92.1 125.4v28h-3.1v-28z"/><path class="c" d="m102 125.1q3.2 0 4.7 1.9 1.6 1.9 1.6 5.1v0.8h-3v-0.9q0-2-0.8-3-0.7-1-2.4-1-1.7 0-2.4 1-0.8 1-0.8 2.9 0 1.6 0.7 2.7 0.7 1.2 1.7 2.2 1.1 1 2.3 1.9 1.2 0.9 2.3 2.1 1 1.1 1.7 2.5 0.7 1.4 0.7 3.4 0 3.2-1.5 5.1-1.6 1.9-4.8 1.9-3.3 0-4.8-1.9-1.5-1.9-1.5-5.1v-1.6h2.9v1.7q0 2 0.8 3 0.8 1 2.5 1 1.7 0 2.5-1 0.8-1 0.8-3 0-1.5-0.7-2.7-0.7-1.1-1.8-2.1-1-1-2.2-1.9-1.2-0.9-2.2-2.1-1.1-1.1-1.8-2.5-0.7-1.4-0.7-3.4 0-3.2 1.5-5.1 1.6-1.9 4.7-1.9z"/><path class="c" d="m115.9 153.4v-25.2h-5.2v-2.8h13.5v2.8h-5.2v25.2z"/></svg>