<svg xmlns="http://www.w3.org/2000/svg" xmlns:xlink="http://www.w3.org/1999/xlink" width="500" zoomAndPan="magnify" viewBox="0 0 375 374.999991" height="500" preserveAspectRatio="xMidYMid meet" version="1.0"><defs><g/><clipPath id="1660e704cd"><path d="M 201 97.683594 L 218 97.683594 L 218 110 L 201 110 Z M 201 97.683594 " clip-rule="nonzero"/></clipPath><clipPath id="07b377646c"><path d="M 131.429688 135 L 160 135 L 160 154 L 131.429688 154 Z M 131.429688 135 " clip-rule="nonzero"/></clipPath><clipPath id="3307859ec4"><path d="M 155 188 L 199 188 L 199 208.683594 L 155 208.683594 Z M 155 188 " clip-rule="nonzero"/></clipPath><clipPath id="feaaa599de"><path d="M 198 172 L 243.929688 172 L 243.929688 194 L 198 194 Z M 198 172 " clip-rule="nonzero"/></clipPath></defs><path fill="#546b74" d="M 171.558594 135.140625 L 182.332031 129.203125 L 165.839844 122.933594 L 155.0625 128.910156 Z M 171.558594 135.140625 " fill-opacity="1" fill-rule="nonzero"/><path fill="#546b74" d="M 188.890625 110.070312 L 178.007812 116.117188 L 194.609375 122.347656 L 205.382812 116.300781 Z M 188.890625 110.070312 " fill-opacity="1" fill-rule="nonzero"/><g clip-path="url(#1660e704cd)"><path fill="#546b74" d="M 217.480469 109.375 L 210.917969 97.683594 L 201.058594 103.21875 Z M 217.480469 109.375 " fill-opacity="1" fill-rule="nonzero"/></g><g clip-path="url(#07b377646c)"><path fill="#546b74" d="M 142.785156 135.726562 L 131.5 141.992188 L 138.132812 153.867188 L 159.277344 141.992188 Z M 142.785156 135.726562 " fill-opacity="1" fill-rule="nonzero"/></g><path fill="#546b74" d="M 224.039062 123.742188 L 219.824219 135.101562 L 206.628906 139.828125 L 211.175781 127.84375 L 199.484375 131.988281 L 194.9375 143.972656 L 181.746094 148.699219 L 186.289062 136.714844 L 174.597656 140.855469 L 170.054688 152.839844 L 156.859375 157.566406 L 161.292969 145.582031 L 138.132812 153.828125 L 154.441406 199.570312 L 240.128906 169.078125 Z M 154.441406 174.902344 L 153.523438 172.484375 L 223.78125 147.417969 L 224.699219 149.835938 Z M 158.984375 186.265625 L 229.242188 161.195312 L 230.160156 163.617188 L 159.902344 188.683594 Z M 158.984375 186.265625 " fill-opacity="1" fill-rule="nonzero"/><g clip-path="url(#3307859ec4)"><path fill="#546b74" d="M 155.765625 202.996094 L 196.152344 188.589844 L 198.183594 194.285156 L 157.796875 208.691406 Z M 155.765625 202.996094 " fill-opacity="1" fill-rule="nonzero"/></g><g clip-path="url(#feaaa599de)"><path fill="#546b74" d="M 198.578125 187.707031 L 241.453125 172.414062 L 243.484375 178.109375 L 200.609375 193.402344 Z M 198.578125 187.707031 " fill-opacity="1" fill-rule="nonzero"/></g><g fill="#5d6f76" fill-opacity="1"><g transform="translate(102.713224, 274.732189)"><g><path d="M 1.375 0 L 0.296875 0 L 3.40625 -8.46875 L 4.46875 -8.46875 L 7.578125 0 L 6.5 0 L 5.640625 -2.390625 L 2.21875 -2.390625 Z M 2.546875 -3.3125 L 5.328125 -3.3125 L 3.96875 -7.125 L 3.90625 -7.125 Z M 2.546875 -3.3125 "/></g></g></g><g fill="#5d6f76" fill-opacity="1"><g transform="translate(112.911339, 274.732189)"><g/></g></g><g fill="#5d6f76" fill-opacity="1"><g transform="translate(118.514229, 274.732189)"><g><path d="M 7.84375 -5.8125 L 6.8125 -5.8125 C 6.726562 -6.207031 6.566406 -6.535156 6.328125 -6.796875 C 6.097656 -7.066406 5.816406 -7.269531 5.484375 -7.40625 C 5.160156 -7.550781 4.8125 -7.625 4.4375 -7.625 C 3.914062 -7.625 3.445312 -7.492188 3.03125 -7.234375 C 2.625 -6.972656 2.296875 -6.585938 2.046875 -6.078125 C 1.804688 -5.578125 1.6875 -4.960938 1.6875 -4.234375 C 1.6875 -3.503906 1.804688 -2.882812 2.046875 -2.375 C 2.296875 -1.875 2.625 -1.492188 3.03125 -1.234375 C 3.445312 -0.972656 3.914062 -0.84375 4.4375 -0.84375 C 4.8125 -0.84375 5.160156 -0.910156 5.484375 -1.046875 C 5.816406 -1.179688 6.097656 -1.382812 6.328125 -1.65625 C 6.566406 -1.925781 6.726562 -2.253906 6.8125 -2.640625 L 7.84375 -2.640625 C 7.738281 -2.066406 7.523438 -1.570312 7.203125 -1.15625 C 6.878906 -0.75 6.476562 -0.4375 6 -0.21875 C 5.519531 0 5 0.109375 4.4375 0.109375 C 3.707031 0.109375 3.0625 -0.0625 2.5 -0.40625 C 1.9375 -0.757812 1.492188 -1.257812 1.171875 -1.90625 C 0.847656 -2.5625 0.6875 -3.335938 0.6875 -4.234375 C 0.6875 -5.128906 0.847656 -5.898438 1.171875 -6.546875 C 1.492188 -7.191406 1.9375 -7.691406 2.5 -8.046875 C 3.0625 -8.398438 3.707031 -8.578125 4.4375 -8.578125 C 5 -8.578125 5.519531 -8.46875 6 -8.25 C 6.476562 -8.03125 6.878906 -7.710938 7.203125 -7.296875 C 7.523438 -6.890625 7.738281 -6.394531 7.84375 -5.8125 Z M 7.84375 -5.8125 "/></g></g></g><g fill="#5d6f76" fill-opacity="1"><g transform="translate(129.307403, 274.732189)"><g><path d="M 8.171875 -4.234375 C 8.171875 -3.335938 8.007812 -2.5625 7.6875 -1.90625 C 7.363281 -1.257812 6.921875 -0.757812 6.359375 -0.40625 C 5.796875 -0.0625 5.15625 0.109375 4.4375 0.109375 C 3.707031 0.109375 3.0625 -0.0625 2.5 -0.40625 C 1.9375 -0.757812 1.492188 -1.257812 1.171875 -1.90625 C 0.847656 -2.5625 0.6875 -3.335938 0.6875 -4.234375 C 0.6875 -5.128906 0.847656 -5.898438 1.171875 -6.546875 C 1.492188 -7.191406 1.9375 -7.691406 2.5 -8.046875 C 3.0625 -8.398438 3.707031 -8.578125 4.4375 -8.578125 C 5.15625 -8.578125 5.796875 -8.398438 6.359375 -8.046875 C 6.921875 -7.691406 7.363281 -7.191406 7.6875 -6.546875 C 8.007812 -5.898438 8.171875 -5.128906 8.171875 -4.234375 Z M 7.171875 -4.234375 C 7.171875 -4.960938 7.046875 -5.578125 6.796875 -6.078125 C 6.554688 -6.585938 6.226562 -6.972656 5.8125 -7.234375 C 5.40625 -7.492188 4.945312 -7.625 4.4375 -7.625 C 3.914062 -7.625 3.445312 -7.492188 3.03125 -7.234375 C 2.625 -6.972656 2.296875 -6.585938 2.046875 -6.078125 C 1.804688 -5.578125 1.6875 -4.960938 1.6875 -4.234375 C 1.6875 -3.503906 1.804688 -2.882812 2.046875 -2.375 C 2.296875 -1.875 2.625 -1.492188 3.03125 -1.234375 C 3.445312 -0.972656 3.914062 -0.84375 4.4375 -0.84375 C 4.945312 -0.84375 5.40625 -0.972656 5.8125 -1.234375 C 6.226562 -1.492188 6.554688 -1.875 6.796875 -2.375 C 7.046875 -2.882812 7.171875 -3.503906 7.171875 -4.234375 Z M 7.171875 -4.234375 "/></g></g></g><g fill="#5d6f76" fill-opacity="1"><g transform="translate(140.497287, 274.732189)"><g><path d="M 3.640625 0 L 1.03125 0 L 1.03125 -8.46875 L 3.75 -8.46875 C 4.570312 -8.46875 5.273438 -8.296875 5.859375 -7.953125 C 6.441406 -7.617188 6.890625 -7.132812 7.203125 -6.5 C 7.515625 -5.875 7.671875 -5.125 7.671875 -4.25 C 7.671875 -3.363281 7.515625 -2.601562 7.203125 -1.96875 C 6.890625 -1.332031 6.429688 -0.84375 5.828125 -0.5 C 5.222656 -0.164062 4.492188 0 3.640625 0 Z M 2.046875 -0.90625 L 3.578125 -0.90625 C 4.617188 -0.90625 5.394531 -1.203125 5.90625 -1.796875 C 6.425781 -2.398438 6.6875 -3.21875 6.6875 -4.25 C 6.6875 -5.269531 6.429688 -6.078125 5.921875 -6.671875 C 5.421875 -7.265625 4.675781 -7.5625 3.6875 -7.5625 L 2.046875 -7.5625 Z M 2.046875 -0.90625 "/></g></g></g><g fill="#5d6f76" fill-opacity="1"><g transform="translate(151.191286, 274.732189)"><g><path d="M 2.046875 -8.46875 L 2.046875 0 L 1.03125 0 L 1.03125 -8.46875 Z M 2.046875 -8.46875 "/></g></g></g><g fill="#5d6f76" fill-opacity="1"><g transform="translate(156.595827, 274.732189)"><g><path d="M 7.734375 -8.46875 L 7.734375 0 L 6.75 0 L 2.140625 -6.640625 L 2.046875 -6.640625 L 2.046875 0 L 1.03125 0 L 1.03125 -8.46875 L 2.015625 -8.46875 L 6.640625 -1.796875 L 6.734375 -1.796875 L 6.734375 -8.46875 Z M 7.734375 -8.46875 "/></g></g></g><g fill="#5d6f76" fill-opacity="1"><g transform="translate(167.686536, 274.732189)"><g><path d="M 6.8125 -5.8125 C 6.632812 -6.375 6.335938 -6.816406 5.921875 -7.140625 C 5.515625 -7.460938 5.003906 -7.625 4.390625 -7.625 C 3.890625 -7.625 3.4375 -7.492188 3.03125 -7.234375 C 2.625 -6.972656 2.296875 -6.585938 2.046875 -6.078125 C 1.804688 -5.578125 1.6875 -4.960938 1.6875 -4.234375 C 1.6875 -3.503906 1.804688 -2.882812 2.046875 -2.375 C 2.296875 -1.875 2.628906 -1.492188 3.046875 -1.234375 C 3.460938 -0.972656 3.9375 -0.84375 4.46875 -0.84375 C 4.9375 -0.84375 5.351562 -0.941406 5.71875 -1.140625 C 6.09375 -1.347656 6.382812 -1.632812 6.59375 -2 C 6.800781 -2.375 6.910156 -2.816406 6.921875 -3.328125 L 4.703125 -3.328125 L 4.703125 -4.234375 L 7.921875 -4.234375 L 7.921875 -3.328125 C 7.921875 -2.628906 7.769531 -2.019531 7.46875 -1.5 C 7.175781 -0.988281 6.769531 -0.59375 6.25 -0.3125 C 5.726562 -0.03125 5.132812 0.109375 4.46875 0.109375 C 3.71875 0.109375 3.054688 -0.0625 2.484375 -0.40625 C 1.921875 -0.757812 1.476562 -1.257812 1.15625 -1.90625 C 0.84375 -2.5625 0.6875 -3.335938 0.6875 -4.234375 C 0.6875 -5.128906 0.84375 -5.898438 1.15625 -6.546875 C 1.476562 -7.191406 1.914062 -7.691406 2.46875 -8.046875 C 3.03125 -8.398438 3.671875 -8.578125 4.390625 -8.578125 C 4.992188 -8.578125 5.535156 -8.460938 6.015625 -8.234375 C 6.503906 -8.003906 6.910156 -7.679688 7.234375 -7.265625 C 7.554688 -6.847656 7.769531 -6.363281 7.875 -5.8125 Z M 6.8125 -5.8125 "/></g></g></g><g fill="#5d6f76" fill-opacity="1"><g transform="translate(178.661533, 274.732189)"><g/></g></g><g fill="#5d6f76" fill-opacity="1"><g transform="translate(184.264423, 274.732189)"><g><path d="M 7.84375 -5.8125 L 6.8125 -5.8125 C 6.726562 -6.207031 6.566406 -6.535156 6.328125 -6.796875 C 6.097656 -7.066406 5.816406 -7.269531 5.484375 -7.40625 C 5.160156 -7.550781 4.8125 -7.625 4.4375 -7.625 C 3.914062 -7.625 3.445312 -7.492188 3.03125 -7.234375 C 2.625 -6.972656 2.296875 -6.585938 2.046875 -6.078125 C 1.804688 -5.578125 1.6875 -4.960938 1.6875 -4.234375 C 1.6875 -3.503906 1.804688 -2.882812 2.046875 -2.375 C 2.296875 -1.875 2.625 -1.492188 3.03125 -1.234375 C 3.445312 -0.972656 3.914062 -0.84375 4.4375 -0.84375 C 4.8125 -0.84375 5.160156 -0.910156 5.484375 -1.046875 C 5.816406 -1.179688 6.097656 -1.382812 6.328125 -1.65625 C 6.566406 -1.925781 6.726562 -2.253906 6.8125 -2.640625 L 7.84375 -2.640625 C 7.738281 -2.066406 7.523438 -1.570312 7.203125 -1.15625 C 6.878906 -0.75 6.476562 -0.4375 6 -0.21875 C 5.519531 0 5 0.109375 4.4375 0.109375 C 3.707031 0.109375 3.0625 -0.0625 2.5 -0.40625 C 1.9375 -0.757812 1.492188 -1.257812 1.171875 -1.90625 C 0.847656 -2.5625 0.6875 -3.335938 0.6875 -4.234375 C 0.6875 -5.128906 0.847656 -5.898438 1.171875 -6.546875 C 1.492188 -7.191406 1.9375 -7.691406 2.5 -8.046875 C 3.0625 -8.398438 3.707031 -8.578125 4.4375 -8.578125 C 5 -8.578125 5.519531 -8.46875 6 -8.25 C 6.476562 -8.03125 6.878906 -7.710938 7.203125 -7.296875 C 7.523438 -6.890625 7.738281 -6.394531 7.84375 -5.8125 Z M 7.84375 -5.8125 "/></g></g></g><g fill="#5d6f76" fill-opacity="1"><g transform="translate(195.057597, 274.732189)"><g><path d="M 1.03125 0 L 1.03125 -8.46875 L 2.046875 -8.46875 L 2.046875 -4.703125 L 6.5625 -4.703125 L 6.5625 -8.46875 L 7.59375 -8.46875 L 7.59375 0 L 6.5625 0 L 6.5625 -3.78125 L 2.046875 -3.78125 L 2.046875 0 Z M 1.03125 0 "/></g></g></g><g fill="#5d6f76" fill-opacity="1"><g transform="translate(205.999533, 274.732189)"><g><path d="M 1.375 0 L 0.296875 0 L 3.40625 -8.46875 L 4.46875 -8.46875 L 7.578125 0 L 6.5 0 L 5.640625 -2.390625 L 2.21875 -2.390625 Z M 2.546875 -3.3125 L 5.328125 -3.3125 L 3.96875 -7.125 L 3.90625 -7.125 Z M 2.546875 -3.3125 "/></g></g></g><g fill="#5d6f76" fill-opacity="1"><g transform="translate(216.197649, 274.732189)"><g><path d="M 1.03125 0 L 1.03125 -8.46875 L 2.046875 -8.46875 L 2.046875 -0.90625 L 5.984375 -0.90625 L 5.984375 0 Z M 1.03125 0 "/></g></g></g><g fill="#5d6f76" fill-opacity="1"><g transform="translate(225.073399, 274.732189)"><g><path d="M 1.03125 0 L 1.03125 -8.46875 L 2.046875 -8.46875 L 2.046875 -0.90625 L 5.984375 -0.90625 L 5.984375 0 Z M 1.03125 0 "/></g></g></g><g fill="#5d6f76" fill-opacity="1"><g transform="translate(233.94915, 274.732189)"><g><path d="M 1.03125 0 L 1.03125 -8.46875 L 6.140625 -8.46875 L 6.140625 -7.5625 L 2.046875 -7.5625 L 2.046875 -4.703125 L 5.875 -4.703125 L 5.875 -3.78125 L 2.046875 -3.78125 L 2.046875 -0.90625 L 6.203125 -0.90625 L 6.203125 0 Z M 1.03125 0 "/></g></g></g><g fill="#5d6f76" fill-opacity="1"><g transform="translate(243.238136, 274.732189)"><g><path d="M 7.734375 -8.46875 L 7.734375 0 L 6.75 0 L 2.140625 -6.640625 L 2.046875 -6.640625 L 2.046875 0 L 1.03125 0 L 1.03125 -8.46875 L 2.015625 -8.46875 L 6.640625 -1.796875 L 6.734375 -1.796875 L 6.734375 -8.46875 Z M 7.734375 -8.46875 "/></g></g></g><g fill="#5d6f76" fill-opacity="1"><g transform="translate(254.328845, 274.732189)"><g><path d="M 6.8125 -5.8125 C 6.632812 -6.375 6.335938 -6.816406 5.921875 -7.140625 C 5.515625 -7.460938 5.003906 -7.625 4.390625 -7.625 C 3.890625 -7.625 3.4375 -7.492188 3.03125 -7.234375 C 2.625 -6.972656 2.296875 -6.585938 2.046875 -6.078125 C 1.804688 -5.578125 1.6875 -4.960938 1.6875 -4.234375 C 1.6875 -3.503906 1.804688 -2.882812 2.046875 -2.375 C 2.296875 -1.875 2.628906 -1.492188 3.046875 -1.234375 C 3.460938 -0.972656 3.9375 -0.84375 4.46875 -0.84375 C 4.9375 -0.84375 5.351562 -0.941406 5.71875 -1.140625 C 6.09375 -1.347656 6.382812 -1.632812 6.59375 -2 C 6.800781 -2.375 6.910156 -2.816406 6.921875 -3.328125 L 4.703125 -3.328125 L 4.703125 -4.234375 L 7.921875 -4.234375 L 7.921875 -3.328125 C 7.921875 -2.628906 7.769531 -2.019531 7.46875 -1.5 C 7.175781 -0.988281 6.769531 -0.59375 6.25 -0.3125 C 5.726562 -0.03125 5.132812 0.109375 4.46875 0.109375 C 3.71875 0.109375 3.054688 -0.0625 2.484375 -0.40625 C 1.921875 -0.757812 1.476562 -1.257812 1.15625 -1.90625 C 0.84375 -2.5625 0.6875 -3.335938 0.6875 -4.234375 C 0.6875 -5.128906 0.84375 -5.898438 1.15625 -6.546875 C 1.476562 -7.191406 1.914062 -7.691406 2.46875 -8.046875 C 3.03125 -8.398438 3.671875 -8.578125 4.390625 -8.578125 C 4.992188 -8.578125 5.535156 -8.460938 6.015625 -8.234375 C 6.503906 -8.003906 6.910156 -7.679688 7.234375 -7.265625 C 7.554688 -6.847656 7.769531 -6.363281 7.875 -5.8125 Z M 6.8125 -5.8125 "/></g></g></g><g fill="#5d6f76" fill-opacity="1"><g transform="translate(265.303843, 274.732189)"><g><path d="M 1.03125 0 L 1.03125 -8.46875 L 6.140625 -8.46875 L 6.140625 -7.5625 L 2.046875 -7.5625 L 2.046875 -4.703125 L 5.875 -4.703125 L 5.875 -3.78125 L 2.046875 -3.78125 L 2.046875 -0.90625 L 6.203125 -0.90625 L 6.203125 0 Z M 1.03125 0 "/></g></g></g><g fill="#080707" fill-opacity="1"><g transform="translate(119.233992, 249.397191)"><g><path d="M 11.921875 -0.046875 L 8.921875 -0.046875 L 4.28125 -22.3125 L 4.28125 0 L 1.5625 0 L 1.5625 -28 L 5.921875 -28 L 10.515625 -5.640625 L 14.953125 -28 L 19.3125 -28 L 19.3125 0 L 16.359375 0 L 16.359375 -22.515625 Z M 11.921875 -0.046875 "/></g></g></g><g fill="#080707" fill-opacity="1"><g transform="translate(140.951913, 249.397191)"><g><path d="M 1.359375 -21.234375 C 1.359375 -23.398438 1.882812 -25.113281 2.9375 -26.375 C 3.988281 -27.644531 5.597656 -28.28125 7.765625 -28.28125 C 9.921875 -28.28125 11.53125 -27.644531 12.59375 -26.375 C 13.664062 -25.113281 14.203125 -23.398438 14.203125 -21.234375 L 14.203125 -6.765625 C 14.203125 -4.628906 13.664062 -2.921875 12.59375 -1.640625 C 11.53125 -0.359375 9.921875 0.28125 7.765625 0.28125 C 5.597656 0.28125 3.988281 -0.359375 2.9375 -1.640625 C 1.882812 -2.921875 1.359375 -4.628906 1.359375 -6.765625 Z M 4.4375 -6.59375 C 4.4375 -5.320312 4.707031 -4.332031 5.25 -3.625 C 5.800781 -2.914062 6.640625 -2.5625 7.765625 -2.5625 C 8.910156 -2.5625 9.75 -2.914062 10.28125 -3.625 C 10.8125 -4.332031 11.078125 -5.320312 11.078125 -6.59375 L 11.078125 -21.40625 C 11.078125 -22.675781 10.8125 -23.664062 10.28125 -24.375 C 9.75 -25.082031 8.910156 -25.4375 7.765625 -25.4375 C 6.640625 -25.4375 5.800781 -25.082031 5.25 -24.375 C 4.707031 -23.664062 4.4375 -22.675781 4.4375 -21.40625 Z M 4.4375 -6.59375 "/></g></g></g><g fill="#080707" fill-opacity="1"><g transform="translate(157.310371, 249.397191)"><g><path d="M 3.953125 -28 L 8.515625 -3.640625 L 13.046875 -28 L 15.921875 -28 L 10.6875 0 L 6.078125 0 L 0.796875 -28 Z M 3.953125 -28 "/></g></g></g><g fill="#080707" fill-opacity="1"><g transform="translate(174.828711, 249.397191)"><g><path d="M 4.71875 -28 L 4.71875 0 L 1.59375 0 L 1.59375 -28 Z M 4.71875 -28 "/></g></g></g><g fill="#080707" fill-opacity="1"><g transform="translate(181.94808, 249.397191)"><g><path d="M 11.5625 -15.59375 L 11.5625 -12.796875 L 4.71875 -12.796875 L 4.71875 -2.84375 L 13.125 -2.84375 L 13.125 0 L 1.59375 0 L 1.59375 -28 L 13.125 -28 L 13.125 -25.15625 L 4.71875 -25.15625 L 4.71875 -15.59375 Z M 11.5625 -15.59375 "/></g></g></g><g fill="#080707" fill-opacity="1"><g transform="translate(197.146645, 249.397191)"><g/></g></g><g fill="#080707" fill-opacity="1"><g transform="translate(204.146023, 249.397191)"><g><path d="M 1.59375 0 L 1.59375 -28 L 4.71875 -28 L 4.71875 -2.84375 L 12.71875 -2.84375 L 12.71875 0 Z M 1.59375 0 "/></g></g></g><g fill="#080707" fill-opacity="1"><g transform="translate(218.424678, 249.397191)"><g><path d="M 4.71875 -28 L 4.71875 0 L 1.59375 0 L 1.59375 -28 Z M 4.71875 -28 "/></g></g></g><g fill="#080707" fill-opacity="1"><g transform="translate(225.544047, 249.397191)"><g><path d="M 7.484375 -28.28125 C 9.617188 -28.28125 11.191406 -27.644531 12.203125 -26.375 C 13.210938 -25.113281 13.71875 -23.414062 13.71875 -21.28125 L 13.71875 -20.515625 L 10.765625 -20.515625 L 10.765625 -21.4375 C 10.765625 -22.71875 10.507812 -23.703125 10 -24.390625 C 9.488281 -25.085938 8.675781 -25.4375 7.5625 -25.4375 C 6.4375 -25.4375 5.617188 -25.085938 5.109375 -24.390625 C 4.609375 -23.703125 4.359375 -22.734375 4.359375 -21.484375 C 4.359375 -20.441406 4.59375 -19.53125 5.0625 -18.75 C 5.53125 -17.976562 6.109375 -17.265625 6.796875 -16.609375 C 7.492188 -15.960938 8.25 -15.328125 9.0625 -14.703125 C 9.875 -14.078125 10.625 -13.390625 11.3125 -12.640625 C 12.007812 -11.890625 12.59375 -11.039062 13.0625 -10.09375 C 13.53125 -9.15625 13.765625 -8.03125 13.765625 -6.71875 C 13.765625 -4.582031 13.25 -2.878906 12.21875 -1.609375 C 11.195312 -0.347656 9.601562 0.28125 7.4375 0.28125 C 5.28125 0.28125 3.691406 -0.347656 2.671875 -1.609375 C 1.660156 -2.878906 1.15625 -4.582031 1.15625 -6.71875 L 1.15625 -8.3125 L 4.078125 -8.3125 L 4.078125 -6.5625 C 4.078125 -5.28125 4.34375 -4.289062 4.875 -3.59375 C 5.414062 -2.90625 6.242188 -2.5625 7.359375 -2.5625 C 8.484375 -2.5625 9.3125 -2.90625 9.84375 -3.59375 C 10.375 -4.289062 10.640625 -5.28125 10.640625 -6.5625 C 10.640625 -7.601562 10.40625 -8.503906 9.9375 -9.265625 C 9.46875 -10.023438 8.882812 -10.726562 8.1875 -11.375 C 7.5 -12.03125 6.753906 -12.671875 5.953125 -13.296875 C 5.160156 -13.921875 4.414062 -14.609375 3.71875 -15.359375 C 3.03125 -16.109375 2.453125 -16.953125 1.984375 -17.890625 C 1.515625 -18.835938 1.28125 -19.96875 1.28125 -21.28125 C 1.28125 -23.4375 1.785156 -25.140625 2.796875 -26.390625 C 3.804688 -27.648438 5.367188 -28.28125 7.484375 -28.28125 Z M 7.484375 -28.28125 "/></g></g></g><g fill="#080707" fill-opacity="1"><g transform="translate(241.222566, 249.397191)"><g><path d="M 5.6875 0 L 5.6875 -25.15625 L 0.515625 -25.15625 L 0.515625 -28 L 13.953125 -28 L 13.953125 -25.15625 L 8.796875 -25.15625 L 8.796875 0 Z M 5.6875 0 "/></g></g></g></svg>